<?xml version="1.0" encoding="utf-8"?>
<!-- Generator: Adobe Illustrator 16.0.0, SVG Export Plug-In . SVG Version: 6.00 Build 0)  -->
<!DOCTYPE svg PUBLIC "-//W3C//DTD SVG 1.1//EN" "http://www.w3.org/Graphics/SVG/1.1/DTD/svg11.dtd">
<svg version="1.1" id="Layer_1" xmlns="http://www.w3.org/2000/svg" xmlns:xlink="http://www.w3.org/1999/xlink" x="0px" y="0px"
	 width="25.512px" height="25.517px" viewBox="0 0 25.512 25.517" enable-background="new 0 0 25.512 25.517" xml:space="preserve">
<g>
	<g>
		<path fill="#FFD76A" d="M12.759,25.517c-3.408,0-6.612-1.327-9.021-3.737C1.327,19.371,0,16.167,0,12.759s1.327-6.612,3.737-9.022
			C6.147,1.327,9.351,0,12.759,0c3.408,0,6.611,1.327,9.021,3.736c4.975,4.976,4.975,13.07,0,18.044
			C19.371,24.19,16.167,25.517,12.759,25.517z M12.759,4c-2.34,0-4.539,0.911-6.193,2.565C4.911,8.219,4,10.419,4,12.759
			c0,2.339,0.911,4.539,2.565,6.193c1.654,1.654,3.854,2.565,6.193,2.565c2.339,0,4.539-0.911,6.193-2.565
			c3.415-3.415,3.415-8.972,0-12.388C17.298,4.911,15.098,4,12.759,4z"/>
	</g>
	<g>
		<path fill="#FFD76A" d="M20.366,20.366c4.201-4.201,4.201-11.014,0-15.216L5.151,20.366C9.353,24.567,16.165,24.567,20.366,20.366
			z"/>
	</g>
</g>
</svg>
