<?xml version="1.0" encoding="utf-8"?>
<!-- Generator: Adobe Illustrator 16.0.0, SVG Export Plug-In . SVG Version: 6.00 Build 0)  -->
<!DOCTYPE svg PUBLIC "-//W3C//DTD SVG 1.1//EN" "http://www.w3.org/Graphics/SVG/1.1/DTD/svg11.dtd">
<svg version="1.1" id="Layer_1" xmlns="http://www.w3.org/2000/svg" xmlns:xlink="http://www.w3.org/1999/xlink" x="0px" y="0px"
	 width="49.225px" height="26.643px" viewBox="0 0 49.225 26.643" enable-background="new 0 0 49.225 26.643" xml:space="preserve">
<g>
	<g>
		<g>
			
				<rect x="10.695" y="14.922" transform="matrix(0.6481 0.7615 -0.7615 0.6481 17.8906 -6.2342)" fill="#BBD6ED" width="9.992" height="2.643"/>
		</g>
		<g>
			
				<rect x="23.311" y="4.549" transform="matrix(0.7613 0.6484 -0.6484 0.7613 14.535 -12.7862)" fill="#BBD6ED" width="2.643" height="17.597"/>
		</g>
		<g>
			
				<rect x="28.578" y="9.131" transform="matrix(0.6481 0.7616 -0.7616 0.6481 19.7751 -21.8905)" fill="#BBD6ED" width="9.993" height="2.643"/>
		</g>
		<g>
			
				<rect x="41.194" y="-1.242" transform="matrix(0.7614 0.6483 -0.6483 0.7614 15.0453 -25.7608)" fill="#BBD6ED" width="2.644" height="17.598"/>
		</g>
		<g>
			
				<rect x="5.407" y="10.319" transform="matrix(0.7589 0.6512 -0.6512 0.7589 14.0664 0.2261)" fill="#BBD6ED" width="2.642" height="17.583"/>
		</g>
		<g>
			<circle fill="#BBD6ED" cx="36.813" cy="14.258" r="2.753"/>
		</g>
		<g>
			<circle fill="#BBD6ED" cx="12.453" cy="12.438" r="2.753"/>
		</g>
		<g>
			<circle fill="#BBD6ED" cx="18.93" cy="20.048" r="2.753"/>
		</g>
		<g>
			<circle fill="#BBD6ED" cx="30.336" cy="6.647" r="2.753"/>
		</g>
	</g>
</g>
</svg>
