<?xml version="1.0" encoding="utf-8"?>
<!-- Generator: Adobe Illustrator 16.0.0, SVG Export Plug-In . SVG Version: 6.00 Build 0)  -->
<!DOCTYPE svg PUBLIC "-//W3C//DTD SVG 1.1//EN" "http://www.w3.org/Graphics/SVG/1.1/DTD/svg11.dtd">
<svg version="1.1" id="Layer_1" xmlns="http://www.w3.org/2000/svg" xmlns:xlink="http://www.w3.org/1999/xlink" x="0px" y="0px"
	 width="41.249px" height="33.055px" viewBox="0 0 41.249 33.055" enable-background="new 0 0 41.249 33.055" xml:space="preserve">
<g>
	<g>
		<path fill="#BBD6ED" d="M40.973,10.555c0.368-0.367,0.368-0.965,0-1.332L40.35,8.598l-1.375,1.289l-2.913,2.914
			c-0.104,0.104-0.181,0.229-0.228,0.367l-1.307,3.924l-7.87-7.869c-0.176-0.178-0.416-0.275-0.666-0.275h-7.157
			c-0.25,0-0.49,0.098-0.666,0.275l-1.79,1.789c-1.368,1.367-2.478,1.945-3.392,1.762c-0.604-0.117-1.176-0.557-1.758-1.102
			c0.826-0.82,2.4-2.387,4.701-4.688c3.18-3.18,11.583-1.559,11.667-1.541c0.309,0.062,0.628-0.035,0.85-0.258l2.913-2.912
			l1.342-1.322l-0.676-0.676C31.85,0.1,31.61,0,31.361,0c-0.25,0-0.49,0.1-0.666,0.275l-3.232,3.232
			c-1.121-0.184-3.911-0.557-6.755-0.264c-0.003,0-0.005,0-0.008-0.002c-2.894-0.307-5.769,0.078-6.905,0.266l-3.231-3.232
			c-0.367-0.367-0.963-0.367-1.332,0L8.485,1.021l1.412,1.252l2.914,2.912c0.223,0.223,0.542,0.32,0.851,0.258
			c0.014-0.002,0.555-0.109,1.411-0.215c-0.165,0.133-0.323,0.275-0.474,0.426c-3.536,3.537-5.354,5.336-5.373,5.354
			c-0.178,0.178-0.279,0.416-0.279,0.668c-0.001,0.25,0.098,0.49,0.275,0.668c0.985,0.984,2.003,2.004,3.4,2.279
			c1.578,0.312,3.244-0.434,5.088-2.279l1.514-1.514h6.378l8.656,8.656c0.01,0.01,0.02,0.02,0.03,0.031l1.769,1.768
			c0.003,0.002,0.324,0.338,0.463,0.801c0.099,0.326,0.16,0.834-0.458,1.451c-0.618,0.617-1.125,0.557-1.452,0.457
			c-0.452-0.137-0.784-0.445-0.801-0.463c0,0,0,0-0.001,0l-5.361-5.361c-0.367-0.367-0.964-0.367-1.332,0
			c-0.367,0.367-0.367,0.965,0,1.332l5.361,5.361c0.003,0.004,0.324,0.338,0.463,0.801c0.1,0.328,0.16,0.834-0.458,1.453
			c-0.617,0.617-1.125,0.557-1.452,0.455c-0.459-0.139-0.795-0.455-0.795-0.455l-5.368-5.369c-0.368-0.367-0.964-0.367-1.332,0
			s-0.368,0.963,0,1.332l3.574,3.572l0,0c0.003,0.004,0.324,0.34,0.463,0.803c0.099,0.326,0.16,0.834-0.458,1.451
			c-0.617,0.617-1.124,0.557-1.453,0.457c-0.459-0.141-0.795-0.457-0.795-0.457c-0.001-0.002-0.001-0.002-0.001-0.002l-3.576-3.576
			c-0.368-0.369-0.965-0.369-1.332,0c-0.368,0.367-0.368,0.963,0,1.332l1.769,1.77c0.047,0.057,0.3,0.371,0.43,0.783
			c0.175,0.559,0.044,1.029-0.41,1.482c-0.442,0.443-0.899,0.576-1.438,0.422c-0.438-0.125-0.775-0.398-0.832-0.445l-1.192-1.193
			c0.638-1.105,0.848-2.729-0.577-4.152c-0.457-0.459-0.936-0.746-1.411-0.906c0.78-1.094,1.185-2.898-0.378-4.461
			c-0.7-0.701-1.526-1.072-2.389-1.072c-0.042,0-0.083,0.002-0.125,0.002c0.031-0.811-0.249-1.693-1.065-2.51
			c-1.801-1.801-3.923-0.986-4.91,0l-0.711,0.713l-1.308-3.924c-0.046-0.139-0.125-0.264-0.228-0.367L2.274,9.887L0.855,8.643
			l-0.579,0.58C0.099,9.398,0,9.639,0,9.887c0,0.252,0.099,0.49,0.276,0.668l3.422,3.422l1.535,4.605l-1.378,1.377
			c-0.987,0.986-1.801,3.109,0,4.91c0.776,0.777,1.613,1.066,2.392,1.066c0.041,0,0.079-0.002,0.119-0.002
			c-0.037,0.902,0.328,1.773,1.068,2.514c0.701,0.701,1.527,1.072,2.389,1.072c0.896,0,1.627-0.389,2.069-0.699
			c0.171,0.502,0.475,0.98,0.91,1.416c0.777,0.777,1.613,1.068,2.393,1.068c0.648,0,1.258-0.203,1.761-0.492l1.214,1.213
			c0.01,0.01,0.02,0.02,0.03,0.029c0.576,0.527,1.51,1,2.525,1c0.78,0,1.608-0.279,2.356-1.027c0.456-0.455,0.738-0.939,0.889-1.426
			c0.553,0.398,1.29,0.703,2.087,0.703c0.78,0,1.615-0.291,2.392-1.066c0.459-0.459,0.748-0.938,0.907-1.412
			c0.551,0.391,1.28,0.689,2.068,0.689c0.779,0,1.615-0.293,2.393-1.068c0.817-0.818,1.096-1.701,1.063-2.516
			c0.041,0.002,0.082,0.004,0.122,0.004c0.78,0,1.616-0.289,2.393-1.066c0.987-0.986,1.306-2.203,0.898-3.426
			c-0.286-0.857-0.836-1.424-0.898-1.484l-1.378-1.377l1.535-4.605L40.973,10.555z M5.186,23.537
			c-0.617-0.617-0.556-1.125-0.457-1.451c0.138-0.461,0.458-0.797,0.458-0.797l3.572-3.572c0.004-0.002,0.34-0.324,0.801-0.463
			c0.328-0.1,0.834-0.16,1.452,0.457c0.617,0.617,0.557,1.125,0.458,1.453c-0.14,0.459-0.458,0.795-0.458,0.795h0l-3.576,3.576
			c-0.036,0.033-0.359,0.328-0.797,0.459C6.311,24.094,5.804,24.154,5.186,23.537z M9.822,27.635c-0.362,0-0.708-0.17-1.058-0.518
			c-0.617-0.619-0.556-1.125-0.458-1.453c0.137-0.451,0.447-0.785,0.457-0.795h0c0.001-0.002,0.001-0.002,0.001-0.002l3.578-3.576
			c0.005-0.006,0.56-0.52,1.19-0.52c0.362,0,0.708,0.17,1.058,0.518c0.617,0.619,0.558,1.125,0.458,1.453
			c-0.139,0.459-0.458,0.795-0.458,0.795l-1.784,1.783c-0.002,0.002-0.003,0.004-0.006,0.006c0,0,0,0-0.001,0l-1.788,1.791
			C11.006,27.121,10.453,27.635,9.822,27.635z M14.133,28.906c-0.617-0.619-0.557-1.125-0.458-1.453
			c0.137-0.453,0.448-0.785,0.457-0.793c0.042-0.039,0.363-0.33,0.796-0.461c0.328-0.098,0.834-0.158,1.451,0.459
			s0.558,1.125,0.457,1.451c-0.137,0.455-0.449,0.787-0.456,0.795c-0.044,0.041-0.365,0.328-0.796,0.459
			C15.257,29.463,14.75,29.521,14.133,28.906z"/>
	</g>
</g>
</svg>
