<?xml version="1.0" encoding="utf-8"?>
<!-- Generator: Adobe Illustrator 16.0.0, SVG Export Plug-In . SVG Version: 6.00 Build 0)  -->
<!DOCTYPE svg PUBLIC "-//W3C//DTD SVG 1.1//EN" "http://www.w3.org/Graphics/SVG/1.1/DTD/svg11.dtd">
<svg version="1.1" id="Layer_1" xmlns="http://www.w3.org/2000/svg" xmlns:xlink="http://www.w3.org/1999/xlink" x="0px" y="0px"
	 width="36.355px" height="23.68px" viewBox="0 0 36.355 23.68" enable-background="new 0 0 36.355 23.68" xml:space="preserve">
<g>
	<g>
		<g>
			<path fill="#FFFFFF" d="M36.355,23.68H4.182V4.227h32.174V23.68z M6.636,21.227h27.266V6.681H6.636V21.227z"/>
		</g>
		<g>
			<polygon fill="#FFFFFF" points="2.454,18.227 0,18.227 0,0 30.945,0 30.945,2.455 2.454,2.455 			"/>
		</g>
		<g>
			<path fill="#FFFFFF" d="M5.409,12.951v-2.453c2.78,0,5.043-2.263,5.043-5.045h2.454C12.906,9.587,9.543,12.951,5.409,12.951z"/>
		</g>
		<g>
			<path fill="#FFFFFF" d="M35.128,12.951c-4.135,0-7.498-3.364-7.498-7.498h2.454c0,2.782,2.263,5.045,5.044,5.045V12.951z"/>
		</g>
		<g>
			<path fill="#FFFFFF" d="M30.084,22.453H27.63c0-4.134,3.363-7.497,7.498-7.497v2.453C32.347,17.409,30.084,19.672,30.084,22.453z
				"/>
		</g>
		<g>
			<path fill="#FFFFFF" d="M12.906,22.453h-2.454c0-2.781-2.263-5.044-5.043-5.044v-2.453C9.543,14.956,12.906,18.319,12.906,22.453
				z"/>
		</g>
	</g>
</g>
</svg>
