<?xml version="1.0" encoding="utf-8"?>
<!-- Generator: Adobe Illustrator 16.0.0, SVG Export Plug-In . SVG Version: 6.00 Build 0)  -->
<!DOCTYPE svg PUBLIC "-//W3C//DTD SVG 1.1//EN" "http://www.w3.org/Graphics/SVG/1.1/DTD/svg11.dtd">
<svg version="1.1" id="Layer_1" xmlns="http://www.w3.org/2000/svg" xmlns:xlink="http://www.w3.org/1999/xlink" x="0px" y="0px"
	 width="49.222px" height="25.984px" viewBox="0 0 49.222 25.984" enable-background="new 0 0 49.222 25.984" xml:space="preserve">
<g>
	<g>
		<g>
			<path fill="#F3F9FD" d="M1.988,25.984v-1.859c0-0.252,0.11-0.492,0.301-0.652c2.269-1.857,4.718-3.104,5.19-3.334
				c0.401-0.201,0.653-0.592,0.653-1.045v-3.643c0-0.332-0.171-0.643-0.441-0.822c-0.201-0.131-0.321-0.352-0.321-0.594V10.25
				c0-1.336,1.084-2.408,2.409-2.408h0.813c1.335,0,2.41,1.084,2.41,2.408v3.785c0,0.242-0.121,0.463-0.321,0.594
				c-0.281,0.18-0.442,0.49-0.442,0.822v1.826c0,0.553,0.442,0.994,0.994,0.994s0.994-0.441,0.994-0.994v-1.365
				c0.481-0.502,0.763-1.164,0.763-1.877V10.25c0-2.43-1.978-4.396-4.397-4.396H9.778c-2.429,0-4.397,1.977-4.397,4.396v3.785
				c0,0.713,0.28,1.375,0.763,1.877v2.682c-0.974,0.512-3.112,1.705-5.11,3.344C0.381,22.479,0,23.27,0,24.125v1.859H1.988z"/>
		</g>
		<g>
			<path fill="#F3F9FD" d="M13.754,25.984v-2.623c0-0.412,0.18-0.803,0.501-1.064c2.962-2.43,6.165-4.045,6.777-4.346
				c0.421-0.201,0.682-0.623,0.682-1.086v-4.717c0-0.332-0.171-0.643-0.441-0.824c-0.341-0.23-0.542-0.602-0.542-1.014v-4.9
				c0-1.887,1.536-3.412,3.414-3.412h1.054c1.888,0,3.413,1.537,3.413,3.412v4.9c0,0.402-0.201,0.783-0.542,1.014
				c-0.281,0.182-0.442,0.492-0.442,0.824v4.717c0,0.463,0.261,0.885,0.683,1.096c0.612,0.301,3.815,1.918,6.776,4.346
				c0.321,0.262,0.501,0.654,0.501,1.064v2.613h1.968v-2.623c0-1.014-0.442-1.957-1.226-2.6c-2.681-2.209-5.551-3.773-6.726-4.377
				v-3.775c0.623-0.602,0.984-1.426,0.984-2.309V5.402C30.589,2.42,28.16,0,25.188,0h-1.055c-2.981,0-5.401,2.43-5.401,5.402v4.898
				c0,0.883,0.361,1.707,0.984,2.309v3.775c-1.174,0.604-4.045,2.168-6.726,4.377c-0.784,0.643-1.225,1.586-1.225,2.6v2.623H13.754z
				"/>
		</g>
		<g>
			<path fill="#F3F9FD" d="M34.986,17.197c0,0.553,0.442,0.994,0.994,0.994c0.552,0,0.994-0.441,0.994-0.994v-1.746
				c0-0.332-0.171-0.643-0.442-0.822c-0.201-0.131-0.32-0.352-0.32-0.594V10.25c0-1.336,1.083-2.42,2.419-2.42h0.813
				c1.335,0,2.41,1.084,2.41,2.41v3.785c0,0.242-0.121,0.461-0.322,0.592c-0.281,0.182-0.442,0.494-0.442,0.824v3.643
				c0,0.453,0.251,0.844,0.653,1.045c0.471,0.23,2.921,1.467,5.189,3.334c0.191,0.16,0.302,0.391,0.302,0.65v1.871h1.987v-1.871
				c0-0.852-0.371-1.645-1.034-2.188c-1.997-1.646-4.135-2.832-5.12-3.342v-2.682c0.482-0.502,0.764-1.164,0.764-1.877V10.24
				c0-2.43-1.978-4.398-4.397-4.398h-0.812c-2.43,0-4.397,1.979-4.397,4.398v3.785c0,0.713,0.281,1.375,0.763,1.877V17.197z"/>
		</g>
	</g>
</g>
</svg>
