<?xml version="1.0" encoding="utf-8"?>
<!-- Generator: Adobe Illustrator 16.0.0, SVG Export Plug-In . SVG Version: 6.00 Build 0)  -->
<!DOCTYPE svg PUBLIC "-//W3C//DTD SVG 1.1//EN" "http://www.w3.org/Graphics/SVG/1.1/DTD/svg11.dtd">
<svg version="1.1" id="Layer_1" xmlns="http://www.w3.org/2000/svg" xmlns:xlink="http://www.w3.org/1999/xlink" x="0px" y="0px"
	 width="36.337px" height="32.158px" viewBox="0 0 36.337 32.158" enable-background="new 0 0 36.337 32.158" xml:space="preserve">
<g>
	<g>
		<g>
			<path fill="#E9F6F9" d="M29.684,32.158H6.653C2.985,32.158,0,29.174,0,25.506V11.717c0-3.668,2.985-6.652,6.653-6.652h23.03
				c3.669,0,6.653,2.984,6.653,6.652v13.789C36.337,29.174,33.353,32.158,29.684,32.158z M6.653,8.135
				c-1.975,0-3.582,1.607-3.582,3.582v13.789c0,1.975,1.607,3.582,3.582,3.582h23.03c1.976,0,3.583-1.607,3.583-3.582V11.717
				c0-1.975-1.607-3.582-3.583-3.582H6.653z"/>
		</g>
		<g>
			<path fill="#E9F6F9" d="M24.689,6.6h-3.07V4.096c0-0.555-0.469-1.023-1.023-1.023h-4.854c-0.556,0-1.024,0.469-1.024,1.023V6.6
				h-3.07V4.096C11.647,1.838,13.483,0,15.742,0h4.854c2.258,0,4.094,1.838,4.094,4.096V6.6z"/>
		</g>
	</g>
</g>
</svg>
