<?xml version="1.0" encoding="utf-8"?>
<!-- Generator: Adobe Illustrator 16.0.0, SVG Export Plug-In . SVG Version: 6.00 Build 0)  -->
<!DOCTYPE svg PUBLIC "-//W3C//DTD SVG 1.1//EN" "http://www.w3.org/Graphics/SVG/1.1/DTD/svg11.dtd">
<svg version="1.1" id="Layer_1" xmlns="http://www.w3.org/2000/svg" xmlns:xlink="http://www.w3.org/1999/xlink" x="0px" y="0px"
	 width="42.271px" height="30.775px" viewBox="0 0 42.271 30.775" enable-background="new 0 0 42.271 30.775" xml:space="preserve">
<g>
	<g>
		<g>
			<path fill="#FFFFFF" d="M21.135,18.891L0,9.447L21.135,0l21.136,9.447L21.135,18.891z M6.319,9.447l14.816,6.621l14.817-6.621
				L21.135,2.824L6.319,9.447z"/>
		</g>
		<g>
			<path fill="#FFFFFF" d="M21.135,24.287c-1.136,0-11.101-0.115-11.101-4.107v-9.072l11.101,4.961l11.101-4.963v9.074
				C32.236,24.172,22.272,24.287,21.135,24.287z M12.613,20.051c0.54,0.623,3.697,1.658,8.522,1.658s7.982-1.035,8.523-1.658v-4.969
				l-8.523,3.809l-8.522-3.807V20.051z"/>
		</g>
		<g>
			<rect x="5.251" y="10.957" fill="#FFFFFF" width="2.578" height="19.818"/>
		</g>
		<g>
			
				<rect x="3.275" y="24.347" transform="matrix(0.6926 0.7214 -0.7214 0.6926 20.943 5.0359)" fill="#FFFFFF" width="2.578" height="5.482"/>
		</g>
		<g>
			
				<rect x="5.777" y="25.799" transform="matrix(0.7213 0.6926 -0.6926 0.7213 21.1355 1.6499)" fill="#FFFFFF" width="5.482" height="2.578"/>
		</g>
	</g>
</g>
</svg>
