<?xml version="1.0" encoding="utf-8"?>
<!-- Generator: Adobe Illustrator 16.0.0, SVG Export Plug-In . SVG Version: 6.00 Build 0)  -->
<!DOCTYPE svg PUBLIC "-//W3C//DTD SVG 1.1//EN" "http://www.w3.org/Graphics/SVG/1.1/DTD/svg11.dtd">
<svg version="1.1" id="Layer_1" xmlns="http://www.w3.org/2000/svg" xmlns:xlink="http://www.w3.org/1999/xlink" x="0px" y="0px"
	 width="31.128px" height="24.784px" viewBox="0 0 31.128 24.784" enable-background="new 0 0 31.128 24.784" xml:space="preserve">
<g>
	<g>
		<path fill="#5E6264" d="M25.472,16.208c-0.162-0.26-0.331-0.502-0.508-0.726c-0.178-0.223-0.385-0.416-0.621-0.577
			c0.441-0.256,0.849-0.625,1.225-1.112l5.254-6.204h-3.723c-0.344,0-0.623,0.059-0.838,0.173c-0.215,0.115-0.408,0.287-0.58,0.519
			l-4.206,5.062c-0.172,0.208-0.335,0.35-0.491,0.422c-0.155,0.074-0.373,0.11-0.652,0.11h-0.757V0h-4.077v2.767
			c-0.801-0.714-1.742-1.284-2.839-1.695c-1.193-0.446-2.497-0.668-3.912-0.668c-1.248,0-2.352,0.192-3.312,0.582
			S3.667,1.887,3.011,2.523C2.355,3.161,1.856,3.896,1.515,4.726C1.174,5.559,1.003,6.41,1.003,7.284
			c0,1.08,0.156,1.988,0.467,2.726c0.311,0.736,0.725,1.354,1.241,1.852c0.515,0.496,1.104,0.896,1.764,1.201
			s1.334,0.561,2.022,0.768c0.688,0.207,1.358,0.409,2.016,0.607c0.656,0.199,1.236,0.431,1.742,0.697
			c0.505,0.268,0.912,0.6,1.224,0.996c0.31,0.396,0.466,0.906,0.466,1.525c0,1.113-0.349,1.97-1.043,2.57
			c-0.694,0.599-1.677,0.899-2.947,0.899c-0.824,0-1.53-0.112-2.119-0.338c-0.589-0.224-1.103-0.473-1.541-0.745
			c-0.439-0.272-0.814-0.521-1.126-0.746c-0.312-0.224-0.605-0.336-0.881-0.336c-0.194,0-0.379,0.053-0.557,0.161
			c-0.177,0.106-0.319,0.234-0.426,0.385L0,21.629c0.461,0.478,0.991,0.911,1.586,1.302c0.595,0.391,1.23,0.723,1.902,0.999
			c0.672,0.277,1.374,0.487,2.105,0.635c0.731,0.146,1.475,0.22,2.233,0.22c1.316,0,2.491-0.199,3.521-0.599
			c1.031-0.397,1.903-0.946,2.616-1.646c0.658-0.646,1.165-1.401,1.533-2.259v4.245h4.077v-7.75h0.918
			c0.333,0,0.582,0.037,0.749,0.112s0.325,0.242,0.476,0.499l4.318,6.414c0.161,0.279,0.354,0.471,0.58,0.571
			c0.226,0.103,0.5,0.153,0.821,0.153h3.691L25.472,16.208z M14.43,12.782c-0.515-0.476-1.102-0.87-1.761-1.186
			c-0.66-0.315-1.337-0.586-2.031-0.812c-0.694-0.226-1.371-0.447-2.029-0.663c-0.659-0.215-1.252-0.456-1.78-0.723
			c-0.527-0.268-0.951-0.586-1.27-0.954C5.239,8.076,5.08,7.614,5.08,7.057c0-0.438,0.075-0.841,0.226-1.209
			C5.457,5.479,5.69,5.164,6.008,4.902C6.326,4.64,6.716,4.435,7.18,4.285c0.463-0.149,1.001-0.224,1.615-0.224
			c0.679,0,1.271,0.083,1.777,0.249c0.507,0.168,0.946,0.354,1.317,0.556c0.372,0.202,0.693,0.389,0.964,0.556
			s0.525,0.25,0.764,0.25c0.217,0,0.4-0.05,0.552-0.15c0.151-0.102,0.293-0.27,0.422-0.502l0.906-1.672V14.18
			C15.207,13.644,14.854,13.174,14.43,12.782z"/>
	</g>
</g>
</svg>
