<?xml version="1.0" encoding="utf-8"?>
<!-- Generator: Adobe Illustrator 16.0.0, SVG Export Plug-In . SVG Version: 6.00 Build 0)  -->
<!DOCTYPE svg PUBLIC "-//W3C//DTD SVG 1.1//EN" "http://www.w3.org/Graphics/SVG/1.1/DTD/svg11.dtd">
<svg version="1.1" id="Layer_1" xmlns="http://www.w3.org/2000/svg" xmlns:xlink="http://www.w3.org/1999/xlink" x="0px" y="0px"
	 width="47.623px" height="39.179px" viewBox="0 0 47.623 39.179" enable-background="new 0 0 47.623 39.179" xml:space="preserve">
<g>
	<g>
		<g>
			<path fill="#F3F9FD" d="M10.317,24.87C4.628,24.87,0,20.242,0,14.554C0,8.864,4.628,4.236,10.317,4.236
				c5.688,0,10.316,4.628,10.316,10.317C20.633,20.242,16.005,24.87,10.317,24.87z M10.317,6.447c-4.47,0-8.106,3.637-8.106,8.106
				s3.637,8.105,8.106,8.105s8.105-3.636,8.105-8.105S14.787,6.447,10.317,6.447z"/>
		</g>
		<g>
			<path fill="#F3F9FD" d="M10.317,17.408c-1.575,0-2.855-1.28-2.855-2.854c0-1.576,1.281-2.856,2.855-2.856
				c1.574,0,2.855,1.28,2.855,2.856C13.172,16.128,11.891,17.408,10.317,17.408z M10.317,13.908c-0.355,0-0.645,0.29-0.645,0.646
				c0,0.354,0.289,0.645,0.645,0.645s0.645-0.29,0.645-0.645C10.961,14.198,10.672,13.908,10.317,13.908z"/>
		</g>
		<g>
			<path fill="#F3F9FD" d="M33.689,17.408c-1.574,0-2.855-1.28-2.855-2.854c0-1.576,1.281-2.856,2.855-2.856
				c1.575,0,2.856,1.28,2.856,2.856C36.545,16.128,35.264,17.408,33.689,17.408z M33.689,13.908c-0.355,0-0.645,0.29-0.645,0.646
				c0,0.354,0.289,0.645,0.645,0.645c0.356,0,0.645-0.29,0.645-0.645C34.334,14.198,34.045,13.908,33.689,13.908z"/>
		</g>
		<g>
			<path fill="#F3F9FD" d="M33.689,10.075c-1.574,0-2.855-1.281-2.855-2.855c0-1.576,1.281-2.856,2.855-2.856
				c1.575,0,2.856,1.28,2.856,2.856C36.545,8.794,35.264,10.075,33.689,10.075z M33.689,6.575c-0.355,0-0.645,0.289-0.645,0.645
				s0.289,0.645,0.645,0.645c0.356,0,0.645-0.289,0.645-0.645S34.045,6.575,33.689,6.575z"/>
		</g>
		<g>
			<path fill="#F3F9FD" d="M33.689,24.742c-1.574,0-2.855-1.28-2.855-2.854c0-1.575,1.281-2.856,2.855-2.856
				c1.575,0,2.856,1.281,2.856,2.856C36.545,23.462,35.264,24.742,33.689,24.742z M33.689,21.242c-0.355,0-0.645,0.29-0.645,0.646
				s0.289,0.645,0.645,0.645c0.356,0,0.645-0.289,0.645-0.645S34.045,21.242,33.689,21.242z"/>
		</g>
		<g>
			<path fill="#F3F9FD" d="M44.768,24.742c-1.575,0-2.855-1.28-2.855-2.854c0-1.575,1.281-2.856,2.855-2.856
				s2.855,1.281,2.855,2.856C47.623,23.462,46.342,24.742,44.768,24.742z M44.768,21.242c-0.356,0-0.645,0.29-0.645,0.646
				s0.289,0.645,0.645,0.645c0.355,0,0.645-0.289,0.645-0.645S45.123,21.242,44.768,21.242z"/>
		</g>
		<g>
			<path fill="#F3F9FD" d="M19.989,5.71c-1.575,0-2.855-1.281-2.855-2.855S18.414,0,19.989,0c1.574,0,2.855,1.28,2.855,2.854
				S21.563,5.71,19.989,5.71z M19.989,2.21c-0.355,0-0.645,0.29-0.645,0.645c0,0.355,0.29,0.646,0.645,0.646s0.645-0.29,0.645-0.646
				C20.633,2.5,20.344,2.21,19.989,2.21z"/>
		</g>
		<g>
			<path fill="#F3F9FD" d="M24.644,28.37c-1.574,0-2.855-1.281-2.855-2.855s1.281-2.855,2.855-2.855
				c1.575,0,2.855,1.281,2.855,2.855S26.219,28.37,24.644,28.37z M24.644,24.87c-0.355,0-0.645,0.289-0.645,0.645
				s0.289,0.645,0.645,0.645s0.645-0.289,0.645-0.645S25,24.87,24.644,24.87z"/>
		</g>
		<g>
			<path fill="#F3F9FD" d="M13.633,39.179H7.369v-16.52h6.264V39.179z M9.58,36.968h1.842V24.87H9.58V36.968z"/>
		</g>
		<g>
			<rect x="12.067" y="13.448" fill="#F3F9FD" width="19.872" height="2.21"/>
		</g>
		<g>
			
				<rect x="13.739" y="2.555" transform="matrix(0.772 0.6357 -0.6357 0.772 8.7549 -7.5099)" fill="#F3F9FD" width="2.211" height="11.784"/>
		</g>
		<g>
			
				<rect x="21.385" y="3.684" transform="matrix(0.935 0.3547 -0.3547 0.935 3.4432 -9.2076)" fill="#F3F9FD" width="10.909" height="2.21"/>
		</g>
		<g>
			
				<rect x="9.692" y="19.343" transform="matrix(0.8094 0.5872 -0.5872 0.8094 15.2619 -6.1317)" fill="#F3F9FD" width="14.773" height="2.211"/>
		</g>
		<g>
			
				<rect x="28.094" y="20.499" transform="matrix(0.4 0.9165 -0.9165 0.4 39.1138 -12.6254)" fill="#F3F9FD" width="2.211" height="6.122"/>
		</g>
		<g>
			<rect x="35.439" y="20.782" fill="#F3F9FD" width="7.578" height="2.21"/>
		</g>
	</g>
</g>
</svg>
