<?xml version="1.0" encoding="utf-8"?>
<!-- Generator: Adobe Illustrator 16.0.0, SVG Export Plug-In . SVG Version: 6.00 Build 0)  -->
<!DOCTYPE svg PUBLIC "-//W3C//DTD SVG 1.1//EN" "http://www.w3.org/Graphics/SVG/1.1/DTD/svg11.dtd">
<svg version="1.1" id="Layer_1" xmlns="http://www.w3.org/2000/svg" xmlns:xlink="http://www.w3.org/1999/xlink" x="0px" y="0px"
	 width="570px" height="570px" viewBox="0 0 570 570" enable-background="new 0 0 570 570" xml:space="preserve">
<g>
	<rect fill="#49BAEB" width="570" height="570"/>
	<g>
		<path fill="#53C4F1" d="M429.758,143.809c-36.957-37.043-86.238-57.441-138.559-57.441c-52.32,0-101.602,20.398-138.559,57.441
			c-36.961,37.039-57.441,86.238-57.441,138.559s20.398,101.602,57.441,138.559c37.039,36.961,86.239,57.441,138.559,57.441
			c52.32,0,101.602-20.398,138.559-57.441c36.961-37.039,57.441-86.238,57.441-138.559S466.801,180.766,429.758,143.809
			L429.758,143.809z M469.438,273.566h-76c-0.719-30.238-4.957-59.359-12.398-85.199c14.48-7.441,28-16.801,40.398-27.84
			C449.438,190.445,467.277,229.969,469.438,273.566L469.438,273.566z M300,291.168h75.918c-0.641,27.84-4.48,54.48-11.117,78.32
			c-20.48-8.242-42.32-13.043-64.801-14.082V291.168z M408.801,148.289c-10.242,9.039-21.441,16.719-33.281,23.117
			c-3.039-8.48-6.48-16.48-10.32-24c-7.602-15.039-16.238-27.359-25.762-36.801C365.438,117.887,389.039,130.926,408.801,148.289
			L408.801,148.289z M300,106.688c18.32,4.078,35.598,20.961,49.52,48.48c3.758,7.438,7.121,15.359,10.078,23.758
			c-18.797,7.762-38.879,12.32-59.598,13.363V106.688z M364.879,195.809c6.559,23.68,10.32,50.16,10.961,77.84H300v-63.68
			C322.559,208.926,344.398,204.047,364.879,195.809L364.879,195.809z M282.398,273.566H206.48
			c0.641-27.68,4.399-54.16,10.957-77.84c20.481,8.32,42.403,13.121,64.883,14.082v63.758H282.398z M282.48,106.688v85.602
			c-20.722-1.043-40.883-5.602-59.601-13.363c2.961-8.398,6.32-16.32,10.082-23.758C246.879,127.648,264.16,110.766,282.48,106.688
			L282.48,106.688z M243.039,110.605c-9.52,9.441-18.16,21.84-25.762,36.801c-3.758,7.52-7.199,15.52-10.316,24
			c-11.84-6.398-22.961-14.078-33.282-23.117C193.437,130.926,217.039,117.887,243.039,110.605L243.039,110.605z M161.039,160.527
			c12.398,11.039,25.922,20.32,40.398,27.84c-7.437,25.922-11.758,54.961-12.398,85.199h-76
			C115.199,229.969,133.039,190.445,161.039,160.527L161.039,160.527z M113.039,291.168h76c0.719,30.48,5.039,59.68,12.558,85.68
			c-14.398,7.441-27.918,16.641-40.238,27.68C133.121,374.527,115.199,334.926,113.039,291.168L113.039,291.168z M174,416.766
			c10.238-8.957,21.359-16.637,33.121-22.957c3.039,8.238,6.398,16.16,10.156,23.52c7.602,15.039,16.242,27.359,25.762,36.879
			C217.199,446.926,193.679,433.969,174,416.766L174,416.766z M282.48,458.047c-18.32-4.078-35.601-20.961-49.519-48.48
			c-3.684-7.277-6.961-15.039-9.922-23.277c18.719-7.762,38.801-12.32,59.441-13.281V458.047z M217.679,369.488
			c-6.64-23.84-10.48-50.48-11.121-78.32h75.922v64.238C260,356.367,238.16,361.168,217.679,369.488L217.679,369.488z
			 M300.078,458.047v-85.039c20.641,1.039,40.723,5.52,59.441,13.281c-2.961,8.238-6.242,16-9.922,23.277
			C335.68,437.086,318.398,453.969,300.078,458.047L300.078,458.047z M339.52,454.129c9.52-9.441,18.16-21.84,25.758-36.883
			c3.762-7.359,7.121-15.277,10.16-23.52c11.762,6.32,22.883,14,33.121,22.961C388.879,433.969,365.359,446.926,339.52,454.129
			L339.52,454.129z M421.277,404.527c-12.316-10.961-25.84-20.238-40.238-27.68c7.52-26,11.84-55.281,12.559-85.68h76
			C467.359,334.926,449.438,374.527,421.277,404.527L421.277,404.527z M421.277,404.527"/>
	</g>
</g>
</svg>
