<?xml version="1.0" encoding="utf-8"?>
<!-- Generator: Adobe Illustrator 16.0.0, SVG Export Plug-In . SVG Version: 6.00 Build 0)  -->
<!DOCTYPE svg PUBLIC "-//W3C//DTD SVG 1.1//EN" "http://www.w3.org/Graphics/SVG/1.1/DTD/svg11.dtd">
<svg version="1.1" id="Layer_1" xmlns="http://www.w3.org/2000/svg" xmlns:xlink="http://www.w3.org/1999/xlink" x="0px" y="0px"
	 width="25.512px" height="25.517px" viewBox="0 0 25.512 25.517" enable-background="new 0 0 25.512 25.517" xml:space="preserve">
<g>
	<path fill="#FFFFFF" d="M12.186,21.261c-0.021,0.084-0.104,0.126-0.251,0.126H9.139c-0.167,0-0.313-0.073-0.439-0.22l-4.616-5.873
		l-1.288,1.225v4.554c0,0.21-0.104,0.314-0.313,0.314H0.314C0.104,21.387,0,21.282,0,21.072V0.313C0,0.104,0.104,0,0.314,0h2.167
		C2.69,0,2.795,0.104,2.795,0.313v12.782l5.528-5.59C8.47,7.359,8.616,7.285,8.762,7.285h2.891c0.125,0,0.209,0.053,0.251,0.156
		c0.042,0.127,0.031,0.221-0.031,0.283L6.03,13.377l6.093,7.569C12.206,21.03,12.228,21.135,12.186,21.261"/>
	<path fill="#FFFFFF" d="M23.509,21.387h-2.167c-0.23,0-0.346-0.105-0.346-0.314v-0.44c-0.922,0.691-2.104,1.037-3.549,1.037
		c-1.319,0-2.46-0.409-3.424-1.224c-0.941-0.838-1.413-1.906-1.413-3.204c0-2.052,1.277-3.444,3.832-4.177
		c1.004-0.293,2.522-0.544,4.554-0.754c0.062-0.774-0.142-1.434-0.612-1.979c-0.472-0.544-1.157-0.815-2.058-0.815
		c-1.173,0-2.366,0.419-3.58,1.256c-0.188,0.105-0.324,0.084-0.408-0.062l-1.131-1.602c-0.104-0.127-0.073-0.272,0.095-0.439
		c1.612-1.11,3.287-1.665,5.024-1.665c1.34,0,2.481,0.314,3.424,0.942c1.382,0.921,2.072,2.397,2.072,4.428v8.699
		C23.822,21.281,23.718,21.387,23.509,21.387 M20.996,14.822c-2.052,0.21-3.454,0.482-4.208,0.816
		c-1.026,0.439-1.487,1.068-1.383,1.884c0.062,0.462,0.294,0.834,0.691,1.116s0.858,0.444,1.382,0.486
		c1.466,0.104,2.639-0.283,3.518-1.162V14.822z"/>
	<path fill="#FFFFFF" d="M36.658,26.835c-1.142,1.183-2.759,1.774-4.853,1.774c-1.215,0-2.366-0.303-3.454-0.91
		c-0.231-0.147-0.503-0.341-0.816-0.582c-0.314-0.239-0.682-0.539-1.1-0.895c-0.146-0.125-0.157-0.282-0.032-0.472l1.477-1.476
		c0.062-0.063,0.146-0.094,0.251-0.094c0.084,0,0.157,0.03,0.22,0.094c1.173,1.173,2.314,1.759,3.424,1.759
		c2.532,0,3.8-1.318,3.8-3.957v-1.632c-0.984,0.815-2.293,1.224-3.926,1.224c-2.031,0-3.623-0.763-4.773-2.292
		c-1.005-1.34-1.508-3.025-1.508-5.056c0-1.927,0.481-3.56,1.444-4.899c1.131-1.612,2.732-2.419,4.806-2.419
		c1.57,0,2.89,0.408,3.957,1.226V7.601c0-0.21,0.104-0.315,0.314-0.315h2.167c0.209,0,0.313,0.105,0.313,0.315v14.038
		C38.369,23.92,37.799,25.652,36.658,26.835 M35.574,11.745c-0.523-1.34-1.738-2.01-3.644-2.01c-2.449,0-3.674,1.528-3.674,4.585
		c0,1.695,0.408,2.932,1.225,3.706c0.607,0.607,1.393,0.911,2.355,0.911c1.968,0,3.214-0.671,3.737-2.01V11.745z"/>
	<path fill="#FFFFFF" d="M51.423,26.835c-1.142,1.183-2.759,1.774-4.852,1.774c-1.216,0-2.367-0.303-3.455-0.91
		c-0.231-0.147-0.503-0.341-0.816-0.582c-0.314-0.239-0.681-0.539-1.1-0.895c-0.146-0.125-0.157-0.282-0.031-0.472l1.476-1.476
		c0.062-0.063,0.146-0.094,0.251-0.094c0.084,0,0.157,0.03,0.22,0.094c1.173,1.173,2.313,1.759,3.423,1.759
		c2.533,0,3.801-1.318,3.801-3.957v-1.632c-0.984,0.815-2.293,1.224-3.926,1.224c-2.031,0-3.622-0.763-4.773-2.292
		c-1.005-1.34-1.508-3.025-1.508-5.056c0-1.927,0.481-3.56,1.444-4.899c1.131-1.612,2.732-2.419,4.806-2.419
		c1.57,0,2.89,0.408,3.957,1.226V7.601c0-0.21,0.104-0.315,0.314-0.315h2.167c0.209,0,0.313,0.105,0.313,0.315v14.038
		C53.134,23.92,52.563,25.652,51.423,26.835 M50.339,11.745c-0.523-1.34-1.738-2.01-3.643-2.01c-2.45,0-3.675,1.528-3.675,4.585
		c0,1.695,0.408,2.932,1.225,3.706c0.607,0.607,1.393,0.911,2.355,0.911c1.968,0,3.214-0.671,3.737-2.01V11.745L50.339,11.745z"/>
	<path fill="#FFFFFF" d="M57.953,21.387h-2.168c-0.209,0-0.313-0.105-0.313-0.314V0.313C55.472,0.104,55.576,0,55.785,0h2.168
		c0.209,0,0.313,0.104,0.313,0.313v20.759C58.267,21.281,58.162,21.387,57.953,21.387"/>
	<path fill="#FFFFFF" d="M73.748,15.012c0,0.209-0.105,0.314-0.314,0.314H63.227c0.126,1.025,0.566,1.883,1.319,2.574
		c0.859,0.733,1.937,1.099,3.235,1.099c1.151,0,2.188-0.323,3.109-0.973c0.188-0.126,0.345-0.126,0.471,0l1.477,1.507
		c0.167,0.169,0.167,0.314,0,0.44c-1.508,1.131-3.257,1.695-5.245,1.695c-2.136,0-3.915-0.711-5.339-2.136
		c-1.382-1.401-2.073-3.191-2.073-5.369c0-2.053,0.681-3.79,2.042-5.214c1.256-1.298,2.89-1.947,4.899-1.947
		c1.904,0,3.506,0.681,4.805,2.042c1.34,1.402,1.958,3.162,1.853,5.276L73.748,15.012z M69.634,10.395
		c-0.712-0.649-1.57-0.974-2.575-0.974c-0.942,0-1.77,0.314-2.48,0.941c-0.712,0.629-1.162,1.445-1.351,2.45h7.568
		C70.775,11.85,70.388,11.043,69.634,10.395"/>
</g>
</svg>
