<?xml version="1.0" encoding="utf-8"?>
<!-- Generator: Adobe Illustrator 16.0.0, SVG Export Plug-In . SVG Version: 6.00 Build 0)  -->
<!DOCTYPE svg PUBLIC "-//W3C//DTD SVG 1.1//EN" "http://www.w3.org/Graphics/SVG/1.1/DTD/svg11.dtd">
<svg version="1.1" id="Layer_1" xmlns="http://www.w3.org/2000/svg" xmlns:xlink="http://www.w3.org/1999/xlink" x="0px" y="0px"
	 width="166.506px" height="46.51px" viewBox="0 0 166.506 46.51" enable-background="new 0 0 166.506 46.51" xml:space="preserve">
<g>
	<g>
		<path fill="#6B8DB0" d="M61.649,14.242h-3.876l-0.521,1.595h-2.609l3.548-10.147h3.041l3.548,10.147h-2.608L61.649,14.242z
			 M60.934,12.067l-1.222-3.726l-1.223,3.726H60.934z"/>
		<path fill="#6B8DB0" d="M76.702,5.689v10.147h-2.385v-4.03h-3.28v4.03h-2.385V5.689h2.385v3.885h3.28V5.689H76.702z"/>
		<path fill="#6B8DB0" d="M87.58,14.242h-3.876l-0.521,1.595h-2.609l3.548-10.147h3.041l3.548,10.147h-2.608L87.58,14.242z
			 M86.864,12.067l-1.222-3.726l-1.223,3.726H86.864z"/>
		<path fill="#6B8DB0" d="M93.986,13.662c1.073,0.159,1.729-0.16,1.729-1.855V5.689h7.215v10.147h-2.385V7.922H98.1v3.798
			c0,3.624-2.191,4.319-4.114,4.117V13.662z"/>
		<path fill="#6B8DB0" d="M113.511,10.328l-4.025,5.508h-1.789V5.689h2.385v5.508l4.025-5.508h1.789v10.147h-2.385V10.328z"/>
		<path fill="#6B8DB0" d="M127.669,7.922h-2.683v7.915H122.6V7.922h-2.683V5.689h7.752V7.922z"/>
		<path fill="#6B8DB0" d="M137.504,10.328l-4.025,5.508h-1.789V5.689h2.386v5.508l4.025-5.508h1.789v10.147h-2.385V10.328z"/>
		<path fill="#6B8DB0" d="M150.38,15.836l-3.339-4.697v4.697h-2.385V5.689h2.385v4.406l3.19-4.406h2.713l-3.518,4.943l3.667,5.204
			H150.38z"/>
		<path fill="#6B8DB0" d="M163.375,14.242H159.5l-0.521,1.595h-2.609l3.548-10.147h3.042l3.548,10.147h-2.609L163.375,14.242z
			 M162.66,12.067l-1.222-3.726l-1.222,3.726H162.66z"/>
		<path fill="#6B8DB0" d="M61.351,24.7l-4.025,5.508h-1.789V20.061h2.385v5.508l4.025-5.508h1.789v10.147h-2.385V24.7z"/>
		<path fill="#6B8DB0" d="M76.553,20.061v10.147h-2.385v-4.03h-3.279v4.03h-2.386V20.061h2.386v3.885h3.279v-3.885H76.553z"/>
		<path fill="#6B8DB0" d="M80.872,25.135c0-2.986,2.281-5.276,5.427-5.276c1.893,0,3.562,0.913,4.472,2.348l-2.057,1.16
			c-0.462-0.783-1.357-1.247-2.415-1.247c-1.849,0-3.042,1.204-3.042,3.016c0,1.812,1.193,3.015,3.042,3.015
			c1.058,0,1.968-0.464,2.415-1.246l2.057,1.159c-0.894,1.436-2.563,2.349-4.472,2.349C83.152,30.411,80.872,28.121,80.872,25.135z"
			/>
		<path fill="#6B8DB0" d="M100.978,28.613h-3.876l-0.522,1.595h-2.609l3.548-10.147h3.042l3.548,10.147H101.5L100.978,28.613z
			 M100.262,26.439l-1.223-3.726l-1.222,3.726H100.262z"/>
		<path fill="#6B8DB0" d="M113.794,24.7l-4.025,5.508h-1.789V20.061h2.386v5.508l4.025-5.508h1.789v10.147h-2.385V24.7z
			 M109.844,17.321h4.472v1.885h-4.472V17.321z"/>
		<path fill="#6B8DB0" d="M127.952,22.293h-2.683v7.915h-2.386v-7.915H120.2v-2.232h7.752V22.293z"/>
	</g>
	<g>
		<path fill="#6B8DB0" d="M60.16,41.898h-0.508v-6.109h-3.694v6.109H55.46v-6.58h4.7V41.898z"/>
		<path fill="#6B8DB0" d="M66.618,39.548c0,1.391-1.09,2.453-2.434,2.453c-0.912,0-1.636-0.47-2.021-1.194v2.97h-0.47v-6.58h0.47
			v1.09c0.385-0.724,1.109-1.194,2.021-1.194C65.528,37.095,66.618,38.157,66.618,39.548z M66.148,39.548
			c0-1.119-0.875-2.002-1.993-2.002c-1.119,0-1.993,0.884-1.993,2.002s0.874,2.002,1.993,2.002
			C65.274,41.55,66.148,40.667,66.148,39.548z"/>
		<path fill="#6B8DB0" d="M71.638,37.198v4.7h-0.479v-3.882l-2.989,3.882h-0.414v-4.7h0.47v3.882l2.999-3.882H71.638z"/>
		<path fill="#6B8DB0" d="M76.047,41.898l-2.491-2.312v2.312h-0.47v-4.7h0.47v2.134l2.378-2.134h0.658l-2.528,2.256l2.623,2.444
			H76.047z"/>
		<path fill="#6B8DB0" d="M81.443,41.898h-0.47v-4.239h-2.369v2.265c0,1.645-0.695,2.04-1.579,1.974v-0.442
			c0.724,0.066,1.109-0.319,1.109-1.532v-2.726h3.309V41.898z"/>
		<path fill="#6B8DB0" d="M87.506,37.198v4.7h-0.479v-1.062c-0.395,0.705-1.119,1.166-2.021,1.166c-1.335,0-2.435-1.062-2.435-2.453
			s1.1-2.454,2.435-2.454c0.902,0,1.626,0.461,2.021,1.166v-1.062H87.506z M87.027,39.548c0-1.119-0.865-2.002-1.983-2.002
			s-1.993,0.884-1.993,2.002s0.874,2.002,1.993,2.002S87.027,40.667,87.027,39.548z"/>
		<path fill="#6B8DB0" d="M93.467,41.438v1.72h-0.479v-1.26h-4.061v1.26h-0.479v-1.72h0.545c0.329-0.451,0.517-0.959,0.517-1.889
			v-2.35h3.299v4.239H93.467z M92.33,41.438v-3.778h-2.35v1.889c0,0.836-0.141,1.41-0.404,1.889H92.33z"/>
		<path fill="#6B8DB0" d="M98.383,37.198v4.7h-0.479v-2.124h-2.933v2.124h-0.47v-4.7h0.47v2.125h2.933v-2.125H98.383z"/>
		<path fill="#6B8DB0" d="M103.244,40.46c0,0.865-0.714,1.438-1.551,1.438h-1.861v-4.7h0.47v1.824h1.391
			C102.529,39.022,103.244,39.595,103.244,40.46z M102.764,40.46c0-0.602-0.479-0.978-1.071-0.978h-1.391v1.955h1.391
			C102.285,41.438,102.764,41.052,102.764,40.46z M104.438,37.198v4.7h-0.47v-4.7H104.438z"/>
		<path fill="#6B8DB0" d="M110.322,39.567c0,0.075-0.009,0.15-0.009,0.226h-4.258c0.113,1.062,0.921,1.758,1.993,1.758
			c0.771,0,1.354-0.357,1.626-0.855l0.414,0.245c-0.385,0.639-1.119,1.062-2.049,1.062c-1.448,0-2.472-1.034-2.472-2.453
			c0-1.382,0.996-2.454,2.434-2.454C109.429,37.095,110.322,38.279,110.322,39.567z M106.055,39.332h3.778
			c-0.104-1.146-0.912-1.786-1.833-1.786C106.929,37.546,106.149,38.289,106.055,39.332z"/>
		<path fill="#6B8DB0" d="M117.815,37.198v4.7h-0.479v-3.882l-2.989,3.882h-0.414v-4.7h0.47v3.882l2.998-3.882H117.815z"/>
		<path fill="#6B8DB0" d="M123.145,37.198v4.7h-0.479v-2.124h-2.933v2.124h-0.47v-4.7h0.47v2.125h2.933v-2.125H123.145z"/>
		<path fill="#6B8DB0" d="M128.475,37.198v4.7h-0.479v-2.124h-2.933v2.124h-0.47v-4.7h0.47v2.125h2.933v-2.125H128.475z"/>
		<path fill="#6B8DB0" d="M129.604,39.548c0-1.391,1.1-2.454,2.472-2.454c1.363,0,2.463,1.062,2.463,2.454s-1.1,2.453-2.463,2.453
			C130.704,42.001,129.604,40.939,129.604,39.548z M134.059,39.548c0-1.119-0.865-2.002-1.983-2.002s-1.993,0.884-1.993,2.002
			s0.874,2.002,1.993,2.002S134.059,40.667,134.059,39.548z"/>
		<path fill="#6B8DB0" d="M139.389,40.601c0,0.714-0.47,1.297-1.447,1.297h-2.275v-4.7h2.096c0.921,0,1.4,0.545,1.4,1.231
			c0,0.46-0.197,0.846-0.602,1.043C139.107,39.651,139.389,40.065,139.389,40.601z M136.137,37.659v1.626h1.626
			c0.602,0,0.921-0.301,0.921-0.827c0-0.498-0.329-0.799-0.921-0.799H136.137z M138.919,40.582c0-0.517-0.357-0.836-0.978-0.836
			h-1.805v1.692h1.805C138.572,41.438,138.919,41.118,138.919,40.582z"/>
		<path fill="#6B8DB0" d="M145.048,37.198v4.7h-0.479v-1.062c-0.395,0.705-1.118,1.166-2.021,1.166
			c-1.335,0-2.435-1.062-2.435-2.453s1.1-2.454,2.435-2.454c0.902,0,1.626,0.461,2.021,1.166v-1.062H145.048z M144.569,39.548
			c0-1.119-0.865-2.002-1.983-2.002c-1.118,0-1.992,0.884-1.992,2.002s0.874,2.002,1.992,2.002
			C143.704,41.55,144.569,40.667,144.569,39.548z"/>
		<path fill="#6B8DB0" d="M151.037,41.438v1.72h-0.479v-1.26h-4.061v-4.7h0.47v4.239h2.838v-4.239h0.479v4.239H151.037z"/>
		<path fill="#6B8DB0" d="M155.954,37.198v4.7h-0.479v-3.882l-2.989,3.882h-0.414v-4.7h0.47v3.882l2.998-3.882H155.954z"/>
		<path fill="#6B8DB0" d="M161.284,37.198v4.7h-0.479v-3.882l-2.989,3.882h-0.414v-4.7h0.47v3.882l2.998-3.882H161.284z"/>
	</g>
	<path fill="#6B8DB0" d="M23.357,2.168c0.622,0.004,1.345,0.615,1.933,1.639l2.318,4.029c2.282,3.969,7.162,8.895,11.109,11.215
		l4.007,2.355c1.017,0.598,1.622,1.326,1.619,1.949s-0.615,1.346-1.638,1.934l-4.029,2.318c-3.969,2.283-8.896,7.162-11.215,11.109
		l-2.356,4.006c-0.598,1.018-1.326,1.621-1.949,1.619c-0.623-0.004-1.345-0.615-1.933-1.637l-2.317-4.029
		c-2.283-3.969-7.163-8.896-11.11-11.217l-4.007-2.355c-1.017-0.6-1.622-1.326-1.619-1.949c0.003-0.623,0.615-1.346,1.637-1.934
		l4.03-2.318c3.969-2.281,8.896-7.162,11.216-11.107l2.356-4.008C22.005,2.77,22.734,2.166,23.357,2.168 M23.367,0
		c-1.383-0.008-2.771,0.889-3.829,2.688l-2.355,4.008c-2.116,3.598-6.809,8.246-10.428,10.328L2.725,19.34
		c-3.619,2.082-3.636,5.518-0.036,7.633l4.006,2.355c3.6,2.117,8.247,6.809,10.329,10.428l2.317,4.029
		c1.041,1.811,2.419,2.719,3.803,2.725c1.383,0.008,2.771-0.889,3.829-2.688l2.356-4.006c2.116-3.6,6.808-8.248,10.427-10.33
		l4.029-2.316c3.62-2.082,3.636-5.516,0.037-7.633l-4.007-2.355c-3.6-2.115-8.247-6.809-10.329-10.428L27.17,2.725
		C26.129,0.914,24.75,0.006,23.367,0L23.367,0z"/>
	<path fill="#6B8DB0" d="M36.963,8.008c0.446,0.004,1.044,0.094,1.361,0.508c0.364,0.479,0.408,1.361,0.121,2.426l-1.209,4.486
		c-1.193,4.422-1.227,11.355-0.076,15.787l1.168,4.5c0.276,1.064,0.223,1.949-0.146,2.422c-0.321,0.414-0.921,0.496-1.366,0.494
		c-0.377-0.002-0.797-0.062-1.247-0.186l-4.488-1.209c-2.125-0.574-4.927-0.896-7.889-0.912c-2.962-0.014-5.767,0.283-7.897,0.836
		l-4.5,1.168c-0.451,0.115-0.871,0.174-1.248,0.174C9.102,38.5,8.503,38.41,8.186,37.994c-0.364-0.479-0.408-1.361-0.122-2.426
		l1.211-4.486c1.192-4.42,1.226-11.355,0.076-15.787l-1.167-4.5C7.907,9.73,7.959,8.848,8.328,8.373
		c0.321-0.412,0.921-0.496,1.368-0.494c0.376,0.002,0.795,0.064,1.246,0.186l4.487,1.211c2.125,0.572,4.927,0.896,7.889,0.91
		s5.767-0.283,7.897-0.836l4.5-1.166C36.166,8.066,36.586,8.008,36.963,8.008 M36.973,5.84c-0.555-0.002-1.158,0.076-1.804,0.244
		L30.671,7.25c-2.021,0.525-4.682,0.779-7.343,0.766c-2.661-0.012-5.318-0.291-7.334-0.836l-4.488-1.209
		c-0.644-0.174-1.246-0.258-1.801-0.262c-2.92-0.014-4.503,2.236-3.622,5.633l1.167,4.498c1.048,4.041,1.017,10.646-0.07,14.678
		l-1.21,4.486c-0.915,3.389,0.647,5.652,3.568,5.666c0.554,0.002,1.158-0.076,1.803-0.242l4.499-1.168
		c2.021-0.525,4.682-0.779,7.342-0.766c2.661,0.012,5.319,0.293,7.335,0.836l4.488,1.209c0.644,0.174,1.247,0.26,1.801,0.262
		c2.92,0.014,4.503-2.234,3.622-5.631l-1.167-4.5c-1.049-4.041-1.018-10.646,0.07-14.676l1.21-4.488
		C41.454,8.117,39.893,5.854,36.973,5.84L36.973,5.84z"/>
	<g>
		<path fill="#6B8DB0" d="M27.583,7.795l0.024,0.041c0.366,0.637,0.806,1.301,1.292,1.973c0.831-0.125,1.612-0.275,2.315-0.459
			l0.046-0.012c-0.506-0.646-0.969-1.289-1.362-1.906C29.182,7.582,28.4,7.701,27.583,7.795z"/>
		<path fill="#6B8DB0" d="M15.383,9.262l0.045,0.014c0.701,0.189,1.482,0.348,2.312,0.48c0.493-0.668,0.938-1.328,1.311-1.961
			l0.024-0.041c-0.816-0.1-1.597-0.227-2.312-0.385C16.364,7.982,15.896,8.619,15.383,9.262z"/>
		<path fill="#6B8DB0" d="M36.754,17.74c0.668,0.492,1.328,0.938,1.962,1.311l0.041,0.023c0.101-0.814,0.227-1.596,0.385-2.311
			c-0.614-0.4-1.251-0.869-1.894-1.381l-0.012,0.045C37.044,16.139,36.886,16.92,36.754,17.74z"/>
		<path fill="#6B8DB0" d="M38.716,27.584l-0.041,0.023c-0.638,0.367-1.302,0.807-1.974,1.293c0.123,0.82,0.274,1.602,0.459,2.314
			l0.012,0.045c0.648-0.506,1.289-0.967,1.907-1.361C38.928,29.182,38.809,28.4,38.716,27.584z"/>
		<path fill="#6B8DB0" d="M31.127,37.248l-0.046-0.012c-0.7-0.189-1.48-0.348-2.311-0.48c-0.493,0.666-0.938,1.326-1.311,1.961
			l-0.024,0.039c0.815,0.102,1.596,0.229,2.312,0.387C30.147,38.527,30.615,37.891,31.127,37.248z"/>
		<path fill="#6B8DB0" d="M18.927,38.715l-0.023-0.039c-0.368-0.639-0.806-1.303-1.292-1.975c-0.831,0.125-1.613,0.277-2.316,0.459
			l-0.046,0.012c0.506,0.648,0.969,1.289,1.362,1.908C17.33,38.928,18.111,38.809,18.927,38.715z"/>
		<path fill="#6B8DB0" d="M9.756,28.771c-0.668-0.494-1.328-0.939-1.962-1.312l-0.04-0.023c-0.101,0.816-0.228,1.596-0.386,2.311
			c0.614,0.4,1.251,0.869,1.895,1.381l0.012-0.045C9.466,30.371,9.625,29.592,9.756,28.771z"/>
		<path fill="#6B8DB0" d="M7.795,18.926l0.04-0.023c0.638-0.365,1.302-0.807,1.975-1.293c-0.124-0.82-0.274-1.602-0.459-2.314
			L9.338,15.25c-0.647,0.506-1.29,0.969-1.908,1.361C7.583,17.328,7.703,18.111,7.795,18.926z"/>
	</g>
</g>
</svg>
