<?xml version="1.0" encoding="utf-8"?>
<!-- Generator: Adobe Illustrator 16.0.0, SVG Export Plug-In . SVG Version: 6.00 Build 0)  -->
<!DOCTYPE svg PUBLIC "-//W3C//DTD SVG 1.1//EN" "http://www.w3.org/Graphics/SVG/1.1/DTD/svg11.dtd">
<svg version="1.1" id="Layer_1" xmlns="http://www.w3.org/2000/svg" xmlns:xlink="http://www.w3.org/1999/xlink" x="0px" y="0px"
	 width="274.947px" height="76.803px" viewBox="0 0 274.947 76.803" enable-background="new 0 0 274.947 76.803"
	 xml:space="preserve">
<g>
	<g>
		<path fill="#63809E" d="M101.799,23.52H95.4l-0.861,2.632h-4.308l5.858-16.748h5.021l5.858,16.748h-4.307L101.799,23.52z
			 M100.618,19.931l-2.019-6.148l-2.018,6.148H100.618z"/>
		<path fill="#63809E" d="M126.654,9.403v16.748h-3.938V19.5h-5.415v6.651h-3.938V9.403h3.938v6.412h5.415V9.403H126.654z"/>
		<path fill="#63809E" d="M144.618,23.52h-6.398l-0.862,2.632h-4.307l5.857-16.748h5.021l5.857,16.748h-4.308L144.618,23.52z
			 M143.437,19.931l-2.019-6.148l-2.018,6.148H143.437z"/>
		<path fill="#63809E" d="M155.198,22.562c1.772,0.264,2.855-0.263,2.855-3.062V9.403h11.912v16.748h-3.938V13.088h-4.037v6.269
			c0,5.981-3.617,7.13-6.793,6.795V22.562z"/>
		<path fill="#63809E" d="M187.438,17.06l-6.646,9.092h-2.953V9.403h3.938v9.092l6.646-9.092h2.953v16.748h-3.938V17.06z"/>
		<path fill="#63809E" d="M210.816,13.088h-4.431v13.063h-3.938V13.088h-4.43V9.403h12.798V13.088z"/>
		<path fill="#63809E" d="M227.057,17.06l-6.645,9.092h-2.954V9.403h3.938v9.092l6.645-9.092h2.954v16.748h-3.938V17.06z"/>
		<path fill="#63809E" d="M248.32,26.151l-5.514-7.752v7.752h-3.938V9.403h3.938v7.273l5.268-7.273h4.479l-5.809,8.159l6.055,8.589
			H248.32z"/>
		<path fill="#63809E" d="M269.778,23.52h-6.398l-0.861,2.632h-4.308l5.857-16.748h5.021l5.857,16.748h-4.308L269.778,23.52z
			 M268.597,19.931l-2.019-6.148l-2.018,6.148H268.597z"/>
		<path fill="#63809E" d="M101.307,40.792l-6.646,9.092h-2.954V33.136h3.938v9.092l6.646-9.092h2.953v16.748h-3.938V40.792z"/>
		<path fill="#63809E" d="M126.408,33.136v16.748h-3.938v-6.651h-5.415v6.651h-3.938V33.136h3.938v6.412h5.415v-6.412H126.408z"/>
		<path fill="#63809E" d="M133.542,41.51c0-4.929,3.766-8.709,8.959-8.709c3.126,0,5.883,1.507,7.384,3.876l-3.396,1.914
			c-0.763-1.292-2.239-2.058-3.987-2.058c-3.052,0-5.021,1.985-5.021,4.977c0,2.99,1.969,4.977,5.021,4.977
			c1.748,0,3.249-0.766,3.987-2.058l3.396,1.914c-1.477,2.368-4.233,3.876-7.384,3.876C137.309,50.219,133.542,46.438,133.542,41.51
			z"/>
		<path fill="#63809E" d="M166.742,47.252h-6.399l-0.861,2.632h-4.307l5.857-16.748h5.021l5.858,16.748h-4.308L166.742,47.252z
			 M165.56,43.663l-2.019-6.149l-2.018,6.149H165.56z"/>
		<path fill="#63809E" d="M187.905,40.792l-6.645,9.092h-2.954V33.136h3.938v9.092l6.645-9.092h2.954v16.748h-3.938V40.792z
			 M181.383,28.613h7.383v3.11h-7.383V28.613z"/>
		<path fill="#63809E" d="M211.284,36.82h-4.43v13.063h-3.938V36.82h-4.431v-3.685h12.799V36.82z"/>
	</g>
	<g>
		<path fill="#63809E" d="M99.34,69.188h-0.838V59.101h-6.099v10.087h-0.823V58.324h7.759V69.188z"/>
		<path fill="#63809E" d="M110.004,65.308c0,2.297-1.8,4.05-4.019,4.05c-1.505,0-2.7-0.775-3.336-1.971v4.904h-0.776V61.428h0.776
			v1.801c0.636-1.195,1.831-1.971,3.336-1.971C108.205,61.258,110.004,63.011,110.004,65.308z M109.229,65.308
			c0-1.847-1.443-3.306-3.29-3.306s-3.29,1.459-3.29,3.306s1.443,3.306,3.29,3.306S109.229,67.154,109.229,65.308z"/>
		<path fill="#63809E" d="M118.294,61.428v7.76h-0.791v-6.409l-4.935,6.409h-0.683v-7.76h0.776v6.409l4.95-6.409H118.294z"/>
		<path fill="#63809E" d="M125.575,69.188l-4.112-3.818v3.818h-0.776v-7.76h0.776v3.522l3.926-3.522h1.086l-4.174,3.725l4.329,4.035
			H125.575z"/>
		<path fill="#63809E" d="M134.485,69.188h-0.776v-6.999h-3.911v3.74c0,2.715-1.148,3.367-2.607,3.259v-0.729
			c1.195,0.108,1.831-0.528,1.831-2.529v-4.501h5.462V69.188z"/>
		<path fill="#63809E" d="M144.498,61.428v7.76h-0.792v-1.754c-0.651,1.164-1.846,1.924-3.336,1.924c-2.203,0-4.02-1.753-4.02-4.05
			s1.816-4.05,4.02-4.05c1.49,0,2.685,0.76,3.336,1.924v-1.754H144.498z M143.706,65.308c0-1.847-1.428-3.306-3.273-3.306
			c-1.848,0-3.29,1.459-3.29,3.306s1.442,3.306,3.29,3.306C142.278,68.613,143.706,67.154,143.706,65.308z"/>
		<path fill="#63809E" d="M154.339,68.427v2.84h-0.792v-2.079h-6.703v2.079h-0.792v-2.84h0.9c0.543-0.745,0.854-1.583,0.854-3.119
			v-3.88h5.446v6.999H154.339z M152.461,68.427v-6.238h-3.879v3.119c0,1.381-0.233,2.327-0.668,3.119H152.461z"/>
		<path fill="#63809E" d="M162.458,61.428v7.76h-0.792V65.68h-4.842v3.508h-0.775v-7.76h0.775v3.508h4.842v-3.508H162.458z"/>
		<path fill="#63809E" d="M170.484,66.812c0,1.428-1.179,2.375-2.561,2.375h-3.072v-7.76h0.775v3.011h2.297
			C169.305,64.438,170.484,65.385,170.484,66.812z M169.693,66.812c0-0.993-0.792-1.613-1.77-1.613h-2.297v3.228h2.297
			C168.901,68.427,169.693,67.79,169.693,66.812z M172.455,61.428v7.76h-0.775v-7.76H172.455z"/>
		<path fill="#63809E" d="M182.172,65.339c0,0.124-0.016,0.248-0.016,0.372h-7.029c0.186,1.754,1.521,2.902,3.29,2.902
			c1.272,0,2.234-0.59,2.685-1.412l0.683,0.403c-0.636,1.055-1.847,1.753-3.383,1.753c-2.39,0-4.081-1.707-4.081-4.05
			c0-2.281,1.645-4.05,4.019-4.05C180.698,61.258,182.172,63.213,182.172,65.339z M175.127,64.95h6.238
			c-0.171-1.893-1.506-2.948-3.026-2.948C176.571,62.002,175.283,63.229,175.127,64.95z"/>
		<path fill="#63809E" d="M194.545,61.428v7.76h-0.792v-6.409l-4.935,6.409h-0.683v-7.76h0.775v6.409l4.95-6.409H194.545z"/>
		<path fill="#63809E" d="M203.346,61.428v7.76h-0.791V65.68h-4.842v3.508h-0.775v-7.76h0.775v3.508h4.842v-3.508H203.346z"/>
		<path fill="#63809E" d="M212.148,61.428v7.76h-0.791V65.68h-4.842v3.508h-0.776v-7.76h0.776v3.508h4.842v-3.508H212.148z"/>
		<path fill="#63809E" d="M214.013,65.308c0-2.297,1.815-4.05,4.081-4.05c2.25,0,4.066,1.753,4.066,4.05s-1.816,4.05-4.066,4.05
			C215.829,69.357,214.013,67.604,214.013,65.308z M221.369,65.308c0-1.847-1.428-3.306-3.274-3.306s-3.289,1.459-3.289,3.306
			s1.442,3.306,3.289,3.306S221.369,67.154,221.369,65.308z"/>
		<path fill="#63809E" d="M230.17,67.046c0,1.179-0.775,2.142-2.39,2.142h-3.755v-7.76h3.46c1.521,0,2.312,0.9,2.312,2.033
			c0,0.761-0.326,1.396-0.993,1.723C229.706,65.479,230.17,66.161,230.17,67.046z M224.801,62.188v2.685h2.685
			c0.993,0,1.521-0.496,1.521-1.365c0-0.823-0.543-1.319-1.521-1.319H224.801z M229.395,67.015c0-0.854-0.59-1.381-1.614-1.381
			h-2.979v2.793h2.979C228.821,68.427,229.395,67.899,229.395,67.015z"/>
		<path fill="#63809E" d="M239.515,61.428v7.76h-0.791v-1.754c-0.652,1.164-1.847,1.924-3.337,1.924c-2.203,0-4.02-1.753-4.02-4.05
			s1.816-4.05,4.02-4.05c1.49,0,2.685,0.76,3.337,1.924v-1.754H239.515z M238.724,65.308c0-1.847-1.428-3.306-3.274-3.306
			s-3.29,1.459-3.29,3.306s1.443,3.306,3.29,3.306S238.724,67.154,238.724,65.308z"/>
		<path fill="#63809E" d="M249.404,68.427v2.84h-0.792v-2.079h-6.703v-7.76h0.775v6.999h4.687v-6.999h0.792v6.999H249.404z"/>
		<path fill="#63809E" d="M257.523,61.428v7.76h-0.792v-6.409l-4.935,6.409h-0.683v-7.76h0.775v6.409l4.951-6.409H257.523z"/>
		<path fill="#63809E" d="M266.325,61.428v7.76h-0.792v-6.409l-4.935,6.409h-0.684v-7.76h0.776v6.409l4.95-6.409H266.325z"/>
	</g>
	<path fill="#C1D95C" d="M38.569,3.581c1.027,0.005,2.22,1.015,3.191,2.704l3.827,6.653c3.768,6.554,11.827,14.69,18.344,18.521
		l6.616,3.891c1.68,0.986,2.679,2.189,2.674,3.218s-1.016,2.222-2.704,3.192l-6.653,3.828c-6.554,3.77-14.689,11.826-18.52,18.344
		l-3.891,6.616c-0.987,1.679-2.19,2.679-3.219,2.673c-1.027-0.004-2.221-1.016-3.192-2.703l-3.826-6.654
		c-3.769-6.553-11.828-14.688-18.346-18.521l-6.616-3.891c-1.679-0.987-2.679-2.189-2.674-3.218
		c0.005-1.028,1.016-2.221,2.704-3.192l6.653-3.827c6.555-3.77,14.69-11.828,18.521-18.344l3.891-6.617
		C36.337,4.575,37.54,3.576,38.569,3.581 M38.585,0c-2.284-0.012-4.576,1.468-6.322,4.439l-3.89,6.615
		c-3.494,5.943-11.243,13.618-17.219,17.057L4.5,31.938c-5.977,3.438-6.004,9.108-0.061,12.603l6.616,3.89
		c5.943,3.494,13.618,11.243,17.056,17.22l3.827,6.653c1.718,2.988,3.995,4.489,6.279,4.5c2.284,0.011,4.577-1.469,6.324-4.439
		l3.891-6.616c3.494-5.943,11.242-13.618,17.218-17.056l6.653-3.827c5.977-3.438,6.003-9.108,0.061-12.603l-6.617-3.89
		c-5.943-3.493-13.618-11.243-17.056-17.22l-3.826-6.653C43.146,1.511,40.869,0.01,38.585,0L38.585,0z"/>
	<path fill="#C1D95C" d="M61.037,13.225c0.737,0.004,1.725,0.152,2.249,0.838c0.601,0.789,0.674,2.249,0.2,4.004l-1.997,7.41
		c-1.97,7.301-2.024,18.751-0.125,26.069l1.928,7.429c0.456,1.76,0.368,3.219-0.24,4.002c-0.529,0.681-1.52,0.818-2.256,0.815
		c-0.623-0.003-1.316-0.105-2.059-0.306l-7.411-1.998c-3.509-0.947-8.136-1.482-13.027-1.506c-4.891-0.022-9.522,0.467-13.04,1.381
		l-7.43,1.927c-0.745,0.192-1.438,0.29-2.061,0.286c-0.737-0.003-1.726-0.15-2.249-0.836c-0.601-0.79-0.674-2.249-0.201-4.005
		l1.999-7.41c1.969-7.3,2.023-18.75,0.125-26.067l-1.928-7.431c-0.456-1.759-0.369-3.218,0.239-4.001
		c0.529-0.681,1.52-0.82,2.258-0.816c0.622,0.003,1.313,0.106,2.058,0.307l7.41,1.999c3.51,0.946,8.136,1.48,13.027,1.503
		c4.891,0.023,9.522-0.466,13.041-1.379l7.43-1.927C59.72,13.319,60.414,13.223,61.037,13.225 M61.054,9.644
		c-0.916-0.004-1.913,0.126-2.979,0.401l-7.429,1.929c-3.337,0.865-7.731,1.285-12.125,1.264c-4.393-0.021-8.782-0.482-12.111-1.38
		L19,9.859c-1.062-0.287-2.057-0.426-2.974-0.431c-4.822-0.022-7.436,3.69-5.98,9.299l1.928,7.429
		c1.731,6.674,1.679,17.58-0.116,24.236l-1.999,7.41c-1.509,5.595,1.069,9.332,5.891,9.355c0.916,0.004,1.913-0.125,2.978-0.401
		l7.429-1.928c3.337-0.866,7.731-1.286,12.124-1.265c4.394,0.021,8.784,0.482,12.112,1.381l7.411,1.998
		c1.063,0.287,2.058,0.426,2.974,0.43c4.821,0.023,7.435-3.689,5.979-9.298l-1.927-7.429c-1.732-6.674-1.681-17.58,0.115-24.236
		L66.943,19C68.453,13.405,65.875,9.667,61.054,9.644L61.054,9.644z"/>
	<g>
		<path fill="#A9D050" d="M45.549,12.871l0.039,0.067c0.604,1.052,1.331,2.148,2.134,3.259c1.373-0.205,2.663-0.456,3.824-0.758
			l0.075-0.02c-0.835-1.068-1.599-2.129-2.25-3.148C48.188,12.521,46.897,12.719,45.549,12.871z"/>
		<path fill="#A9D050" d="M25.403,15.295l0.075,0.021c1.158,0.312,2.447,0.575,3.817,0.794c0.813-1.103,1.549-2.191,2.165-3.238
			l0.04-0.066c-1.347-0.166-2.636-0.375-3.817-0.637C27.022,13.182,26.249,14.233,25.403,15.295z"/>
		<path fill="#A9D050" d="M60.692,29.293c1.103,0.814,2.192,1.551,3.239,2.166l0.067,0.039c0.167-1.346,0.375-2.635,0.637-3.816
			c-1.014-0.66-2.066-1.434-3.127-2.279l-0.02,0.074C61.171,26.65,60.91,27.939,60.692,29.293z"/>
		<path fill="#A9D050" d="M63.932,45.549l-0.067,0.039c-1.054,0.605-2.149,1.332-3.26,2.135c0.204,1.355,0.453,2.646,0.758,3.823
			l0.019,0.074c1.07-0.835,2.129-1.599,3.15-2.249C64.281,48.188,64.084,46.896,63.932,45.549z"/>
		<path fill="#A9D050" d="M51.4,61.508l-0.075-0.02c-1.157-0.312-2.446-0.575-3.816-0.794c-0.813,1.102-1.549,2.19-2.165,3.237
			l-0.04,0.066c1.347,0.166,2.636,0.376,3.817,0.637C49.781,63.621,50.555,62.569,51.4,61.508z"/>
		<path fill="#A9D050" d="M31.254,63.932l-0.038-0.068c-0.606-1.053-1.332-2.148-2.134-3.258c-1.373,0.205-2.664,0.456-3.825,0.758
			l-0.076,0.018c0.835,1.071,1.6,2.13,2.25,3.15C28.616,64.281,29.906,64.084,31.254,63.932z"/>
		<path fill="#A9D050" d="M16.11,47.51c-1.103-0.814-2.191-1.551-3.24-2.167l-0.066-0.038c-0.166,1.346-0.376,2.635-0.637,3.816
			c1.013,0.66,2.066,1.434,3.128,2.278l0.02-0.074C15.631,50.152,15.894,48.863,16.11,47.51z"/>
		<path fill="#A9D050" d="M12.872,31.254l0.066-0.039c1.054-0.605,2.149-1.332,3.261-2.135c-0.205-1.355-0.453-2.646-0.759-3.822
			l-0.02-0.076c-1.069,0.836-2.13,1.6-3.149,2.25C12.521,28.615,12.719,29.906,12.872,31.254z"/>
	</g>
</g>
</svg>
