<?xml version="1.0" encoding="utf-8"?>
<!-- Generator: Adobe Illustrator 16.0.0, SVG Export Plug-In . SVG Version: 6.00 Build 0)  -->
<!DOCTYPE svg PUBLIC "-//W3C//DTD SVG 1.1//EN" "http://www.w3.org/Graphics/SVG/1.1/DTD/svg11.dtd">
<svg version="1.1" id="Layer_1" xmlns="http://www.w3.org/2000/svg" xmlns:xlink="http://www.w3.org/1999/xlink" x="0px" y="0px"
	 width="14.666px" height="14.668px" viewBox="0 0 14.666 14.668" enable-background="new 0 0 14.666 14.668" xml:space="preserve">
<g>
	<g>
		<path fill="#63809E" d="M8.912,11.513c-1.538,0-2.984-0.599-4.071-1.686c-2.245-2.244-2.245-5.896,0-8.141
			C5.928,0.599,7.374,0,8.912,0c1.538,0,2.983,0.599,4.07,1.686c2.244,2.244,2.244,5.896,0,8.141
			C11.896,10.914,10.45,11.513,8.912,11.513z M8.912,2C7.908,2,6.965,2.391,6.255,3.1c-1.464,1.465-1.464,3.848,0,5.312
			c1.419,1.418,3.894,1.419,5.313,0c1.464-1.465,1.464-3.848,0-5.312C10.859,2.391,9.916,2,8.912,2z"/>
	</g>
	<g>
		
			<rect x="2.128" y="8.117" transform="matrix(0.7071 0.7071 -0.7071 0.7071 9.0765 1.1685)" fill="#63809E" width="2" height="6.847"/>
	</g>
</g>
</svg>
