<?xml version="1.0" encoding="utf-8"?>
<!-- Generator: Adobe Illustrator 16.0.0, SVG Export Plug-In . SVG Version: 6.00 Build 0)  -->
<!DOCTYPE svg PUBLIC "-//W3C//DTD SVG 1.1//EN" "http://www.w3.org/Graphics/SVG/1.1/DTD/svg11.dtd">
<svg version="1.1" id="Layer_1" xmlns="http://www.w3.org/2000/svg" xmlns:xlink="http://www.w3.org/1999/xlink" x="0px" y="0px"
	 width="25.512px" height="25.517px" viewBox="0 0 25.512 25.517" enable-background="new 0 0 25.512 25.517" xml:space="preserve">
<g>
	<g>
		<path fill="#EBEBEB" d="M12.759,25.517c-3.408,0-6.612-1.328-9.021-3.738C1.327,19.37,0,16.167,0,12.758s1.327-6.612,3.737-9.022
			C6.146,1.327,9.351,0,12.759,0c3.408,0,6.612,1.327,9.021,3.737c4.975,4.975,4.975,13.068,0,18.043
			C19.371,24.189,16.167,25.517,12.759,25.517z M12.759,4c-2.34,0-4.539,0.911-6.193,2.565C4.911,8.219,4,10.418,4,12.758
			c0,2.339,0.911,4.538,2.565,6.192c1.654,1.655,3.854,2.566,6.193,2.566c2.34,0,4.539-0.911,6.193-2.565
			c3.415-3.415,3.415-8.972,0-12.387C17.298,4.911,15.098,4,12.759,4z"/>
	</g>
	<g>
		<path fill="#EBEBEB" d="M20.366,20.366c4.201-4.201,4.201-11.014,0-15.215L5.151,20.365C9.353,24.567,16.165,24.567,20.366,20.366
			z"/>
	</g>
</g>
</svg>
